<?xml version="1.0" encoding="utf-8"?>
<!-- Generator: Adobe Illustrator 25.4.1, SVG Export Plug-In . SVG Version: 6.00 Build 0)  -->
<svg version="1.1" id="Layer_1" xmlns="http://www.w3.org/2000/svg" xmlns:xlink="http://www.w3.org/1999/xlink" x="0px" y="0px"
	 viewBox="0 0 65 56" style="enable-background:new 0 0 65 56;" xml:space="preserve">
<style type="text/css">
	.st0{fill:none;stroke:#284F5E;stroke-width:1.3362;stroke-miterlimit:10;}
	.st1{fill:#284F5E;}
	.st2{fill:#FFFFFF;}
</style>
<g>
	<path class="st0" d="M53.4,28c0,14.3-11.6,25.8-25.8,25.8S1.8,42.3,1.8,28S13.4,2.2,27.6,2.2S53.4,13.7,53.4,28z"/>
	<circle class="st1" cx="51.4" cy="38.8" r="11.8"/>
	<g>
		<path class="st2" d="M51.9,39.7l2.6-5.1c0.1-0.1,0.1-0.2,0.2-0.3c0.1-0.1,0.2-0.1,0.4-0.1h0.5c0.1,0,0.2,0,0.2,0.1
			s0.1,0.2,0.1,0.2V43c0,0.1,0,0.2-0.1,0.2s-0.2,0.1-0.2,0.1h-0.5c-0.1,0-0.2,0-0.2-0.1S54.8,43,54.8,43v-6.2l-2,3.9
			c-0.1,0.1-0.1,0.2-0.2,0.3s-0.2,0.1-0.3,0.1h-0.5c-0.1,0-0.2,0-0.3-0.1s-0.2-0.2-0.2-0.3l-2-3.9V43c0,0.1,0,0.2-0.1,0.2
			S49,43.3,49,43.3h-0.5c-0.1,0-0.2,0-0.2-0.1S48.2,43,48.2,43v-8.4c0-0.1,0-0.2,0.1-0.2s0.2-0.1,0.2-0.1H49c0.1,0,0.3,0,0.4,0.1
			c0.1,0.1,0.2,0.2,0.2,0.3L51.9,39.7z"/>
	</g>
	<g>
		<g>
			<g>
				<polygon class="st1" points="36,21.6 36,27.4 28.8,27.4 28.8,21.6 26.1,21.6 26.1,27.4 19,27.4 19,21.6 16.3,21.6 16.3,36 
					19,36 19,30.1 26.1,30.1 26.1,36 28.8,36 28.8,30.1 38.7,30.1 38.7,21.6 				"/>
			</g>
		</g>
		<g>
			<g>
				<path class="st1" d="M18.7,18.2v-3.6H17c0,0.1-0.1,0.2-0.2,0.3s-0.3,0.2-0.4,0.3s-0.3,0.2-0.4,0.2c-0.1,0.1-0.3,0.1-0.3,0.1V17
					c0.1,0,0.2,0,0.4-0.1c0.1,0,0.3-0.1,0.4-0.1c0.1-0.1,0.3-0.1,0.4-0.2s0.2-0.1,0.2-0.2v1.8h-1.3v1.5h4.1v-1.5
					C19.9,18.2,18.7,18.2,18.7,18.2z"/>
			</g>
		</g>
		<g>
			<g>
				<path class="st1" d="M29.7,17.4c-0.1-0.2-0.1-0.3-0.3-0.5c-0.1-0.1-0.2-0.3-0.4-0.4c-0.2-0.1-0.3-0.2-0.5-0.2
					c0.2,0,0.3-0.1,0.5-0.2c0.1-0.1,0.3-0.2,0.4-0.3s0.2-0.3,0.2-0.4c0.1-0.2,0.1-0.3,0.1-0.5s-0.1-0.5-0.2-0.6
					c-0.1-0.2-0.3-0.4-0.4-0.5c-0.2-0.1-0.4-0.2-0.7-0.3c-0.3-0.1-0.6-0.1-0.9-0.1c-0.2,0-0.5,0-0.7,0.1c-0.2,0-0.4,0.1-0.7,0.2
					c-0.2,0.1-0.4,0.2-0.5,0.3c-0.2,0.1-0.3,0.2-0.4,0.3l1.1,1.3c0.1-0.2,0.3-0.4,0.5-0.5s0.4-0.2,0.6-0.2s0.3,0,0.4,0.1
					s0.2,0.2,0.2,0.3c0,0.2-0.1,0.3-0.3,0.4c-0.2,0.1-0.4,0.2-0.7,0.2h-0.3V17H27c0.4,0,0.7,0,0.9,0.1c0.2,0.1,0.3,0.3,0.3,0.5
					S28.1,17.9,28,18s-0.4,0.1-0.7,0.1c-0.2,0-0.5,0-0.7-0.1s-0.4-0.2-0.5-0.3l-0.9,1.2c0.3,0.2,0.6,0.4,1,0.5
					c0.3,0.1,0.8,0.2,1.2,0.2c0.4,0,0.7,0,1.1-0.1c0.3-0.1,0.6-0.2,0.8-0.4c0.2-0.2,0.4-0.3,0.5-0.6c0.1-0.2,0.2-0.5,0.2-0.8
					C29.8,17.8,29.7,17.6,29.7,17.4z"/>
			</g>
		</g>
		<g>
			<g>
				<path class="st1" d="M39,17.5c0.3-0.2,0.5-0.5,0.7-0.8s0.2-0.7,0.2-1c0-0.3-0.1-0.5-0.2-0.8c-0.1-0.3-0.3-0.5-0.4-0.7
					c-0.2-0.2-0.4-0.4-0.7-0.5s-0.5-0.2-0.9-0.2h-2.9v6.3h1.7v-1.9h0.6l1.2,1.9h2L39,17.5z M38.1,16.2c-0.1,0.1-0.2,0.2-0.3,0.2
					h-1.1V15h1c0.1,0,0.2,0.1,0.3,0.2c0.1,0.1,0.2,0.3,0.2,0.5S38.1,16.1,38.1,16.2z"/>
			</g>
		</g>
		<g>
			<g>
				<path class="st1" d="M18,41.4c0.2-0.1,0.3-0.2,0.5-0.3s0.3-0.2,0.5-0.3c0.1-0.1,0.2-0.2,0.4-0.3c0.1-0.1,0.2-0.2,0.3-0.3
					c0.1-0.1,0.1-0.2,0.2-0.4c0-0.1,0.1-0.3,0.1-0.5c0-0.5-0.2-0.9-0.5-1.2c-0.4-0.3-0.9-0.4-1.5-0.4c-0.3,0-0.5,0-0.7,0.1
					c-0.2,0-0.5,0.1-0.7,0.2c-0.2,0.1-0.4,0.2-0.6,0.3c-0.2,0.1-0.3,0.2-0.4,0.3l1.1,1.3c0.2-0.2,0.4-0.4,0.5-0.5
					c0.2-0.1,0.4-0.2,0.6-0.2s0.3,0,0.4,0.1s0.1,0.2,0.1,0.3s0,0.1,0,0.1s-0.1,0.1-0.2,0.2C18,40,17.9,40,17.7,40.2
					c-0.2,0.1-0.4,0.2-0.8,0.4c-0.2,0.1-0.5,0.3-0.6,0.4c-0.2,0.1-0.3,0.3-0.4,0.5c-0.1,0.2-0.2,0.4-0.2,0.6c0,0.2-0.1,0.5-0.1,0.8
					h4.7v-1.5L18,41.4L18,41.4z"/>
			</g>
		</g>
		<g>
			<g>
				<path class="st1" d="M29.1,41.4v-3.6h-1.2l-2.8,3.6v1.5h2.3V44h1.7v-1.1h0.8v-1.5H29.1z M27.6,41.4h-0.8l0.8-1.1V41.4z"/>
			</g>
		</g>
	</g>
</g>
</svg>
