<?xml version="1.0" encoding="utf-8"?>
<!-- Generator: Adobe Illustrator 22.0.0, SVG Export Plug-In . SVG Version: 6.00 Build 0)  -->
<svg version="1.1" id="Layer_1" xmlns="http://www.w3.org/2000/svg" xmlns:xlink="http://www.w3.org/1999/xlink" x="0px" y="0px"
	 viewBox="0 0 144 145" style="enable-background:new 0 0 144 145;" xml:space="preserve">
<style type="text/css">
	.st0{fill:#F16E64;}
</style>
<path class="st0" d="M108.1,0H35.8C15.9,0-0.5,16.4-0.5,36.4v72.3c0,19.9,16.4,36.3,36.3,36.3h72.3c20,0,36.4-16.4,36.4-36.4V36.4
	C144.5,16.4,128.1,0,108.1,0z M50.5,111h-17V59h17V111z M41.6,52h-0.1c-5.8,0-9.5-3.9-9.5-8.9c0-5.1,3.8-8.9,9.7-8.9
	s9.5,3.8,9.6,8.9C51.3,48.1,47.6,52,41.6,52z M111.5,111h-17V83.1c0-6.9-2.4-11.7-8.6-11.7c-4.7,0-7.5,3.2-8.7,6.3
	c-0.5,1.1-0.7,2.6-0.7,4.2V111H59.6c0,0,0.2-47,0-52h16.9v7.4c3-3.5,6.3-8.5,15.4-8.5c11.3,0,19.6,7.4,19.6,23.2V111z"/>
</svg>
