<?xml version="1.0" encoding="utf-8"?>
<!-- Generator: Adobe Illustrator 25.4.1, SVG Export Plug-In . SVG Version: 6.00 Build 0)  -->
<svg version="1.1" id="Layer_1" xmlns="http://www.w3.org/2000/svg" xmlns:xlink="http://www.w3.org/1999/xlink" x="0px" y="0px"
	 viewBox="0 0 65 56" style="enable-background:new 0 0 65 56;" xml:space="preserve">
<style type="text/css">
	.st0{fill:none;stroke:#284F5E;stroke-width:1.3362;stroke-miterlimit:10;}
	.st1{fill:#284F5E;}
	.st2{fill:none;}
</style>
<g>
	<path class="st0" d="M53.4,28c0,14.3-11.6,25.8-25.8,25.8S1.8,42.3,1.8,28S13.4,2.2,27.6,2.2S53.4,13.7,53.4,28z"/>
	<path class="st1" d="M35.6,30v-5.8l5.1,5.2c0.3,0.3,0.8,0.3,1.1,0s0.4-0.8,0.1-1.1L35.6,22v-6.4c0-1.7-1.7-3.6-3.5-3.6h-8.9
		c-1.8,0-3.5,1.9-3.5,3.6V22l-6.2,6.3c-0.3,0.3-0.3,0.8,0,1.1c0.3,0.3,0.7,0.3,1,0l5.1-5.2V30l-6.2,6.3c-0.1,0.1-0.2,0.3-0.2,0.6
		c0,0.2,0.1,0.4,0.3,0.6c0.3,0.3,0.7,0.3,1,0l5.1-5.2v8.2c0,1.7,1.7,3.6,3.5,3.6H32c1.8,0,3.5-1.9,3.5-3.6v-8.2l5.1,5.2
		c0.3,0.3,0.8,0.3,1.1,0s0.4-0.8,0.1-1.1L35.6,30z M33.6,40.4c0,0.8-0.6,1.6-1.5,1.6h-8.9c-1,0-1.5-0.7-1.5-1.6V38h12L33.6,40.4
		L33.6,40.4z M33.6,36h-12V21.9l0.1,0.1h11.9V36z M33.6,20h-12v-4.4c0-0.8,0.6-1.6,1.5-1.6H32c1,0,1.5,0.7,1.5,1.6L33.6,20L33.6,20z
		"/>
	<circle class="st1" cx="51.4" cy="38.8" r="11.8"/>
	<rect x="45.6" y="34.1" class="st2" width="12.7" height="10.5"/>
</g>
</svg>
