<?xml version="1.0" encoding="utf-8"?>
<!-- Generator: Adobe Illustrator 22.0.0, SVG Export Plug-In . SVG Version: 6.00 Build 0)  -->
<svg version="1.1" id="Layer_1" xmlns="http://www.w3.org/2000/svg" xmlns:xlink="http://www.w3.org/1999/xlink" x="0px" y="0px"
	 viewBox="0 0 144 145" style="enable-background:new 0 0 144 145;" xml:space="preserve">
<style type="text/css">
	.st0{fill:#F16E64;}
</style>
<path class="st0" d="M108.1,0H35.8C15.9,0,0,16.4,0,36.4v72.3C0,128.6,15.9,145,35.8,145h72.3c20,0,35.9-16.4,35.9-36.4V36.4
	C144,16.4,128.2,0,108.1,0z M116,43h-10c-8,0-10,3.7-10,9.3V65h19.6l-2.5,19H96v50H76V84H60V65h16V50.4c0-16.5,10.2-25.5,25-25.5
	c7.1,0,13,0.5,15,0.8V43z"/>
</svg>
