<svg width="145" height="145" viewBox="0 0 145 145" fill="none" xmlns="http://www.w3.org/2000/svg">
<path fill-rule="evenodd" clip-rule="evenodd" d="M36 0C16.1177 0 0 16.1177 0 36V109C0 128.882 16.1177 145 36 145H109C128.882 145 145 128.882 145 109V36C145 16.1177 128.882 0 109 0H36ZM89.2754 50.8408C91.4795 53.3223 94.4185 55.0352 97.6641 55.7295C98.7358 55.9556 99.8286 56.0688 100.924 56.0674V67.1924C95.3618 67.2021 89.9365 65.4678 85.4116 62.2329V84.937C85.4116 89.0259 84.1929 93.022 81.9111 96.415C79.6299 99.8081 76.3887 102.445 72.6025 103.988C68.8159 105.53 64.6553 105.91 60.6523 105.078C56.6489 104.246 52.9844 102.239 50.1265 99.3154C47.1299 96.2476 45.1665 92.3198 44.5122 88.0815C43.8574 83.8428 44.5439 79.5059 46.4756 75.6768C48.4072 71.8481 51.4878 68.7188 55.2852 66.7266C59.083 64.7344 63.4087 63.979 67.6572 64.5664V75.9414C65.752 75.335 63.7031 75.3516 61.8081 75.9883C59.9131 76.6245 58.27 77.8486 57.1172 79.4819C55.9644 81.1152 55.3618 83.0732 55.397 85.0723C55.4321 87.0713 56.103 89.0068 57.312 90.5986C58.5029 92.1646 60.1548 93.3179 62.0347 93.8965C63.915 94.4751 65.9292 94.4502 67.7944 93.8252C69.6597 93.2002 71.2817 92.0063 72.4336 90.4116C73.5854 88.8169 74.2085 86.9014 74.2153 84.9341V40.5H85.4116V41.9331C85.7178 45.2383 87.0713 48.3589 89.2754 50.8408Z" fill="#F16E64"/>
</svg>
