<?xml version="1.0" encoding="utf-8"?>
<!-- Generator: Adobe Illustrator 22.0.0, SVG Export Plug-In . SVG Version: 6.00 Build 0)  -->
<svg version="1.1" id="Layer_1" xmlns="http://www.w3.org/2000/svg" xmlns:xlink="http://www.w3.org/1999/xlink" x="0px" y="0px"
	 viewBox="0 0 281 176" style="enable-background:new 0 0 281 176;" xml:space="preserve">
<style type="text/css">
	.st0{fill:#F26F64;}
</style>
<path class="st0" d="M216.1,74.5c-0.8,2.2-2.2,6-2.2,5.8c0,0-5.1,12.7-6.4,16.7h13.4c-0.6-3-3.7-17.3-3.7-17.3L216.1,74.5z"/>
<path class="st0" d="M251,0H30C13.4,0,0,13.4,0,30v116c0,16.6,13.4,30,30,30h221c16.6,0,30-13.4,30-30V30C281,13.4,267.6,0,251,0z
	 M41.7,58h25.1c3.4,0,6.1,1.1,7,4.8L79.3,89C73.9,75.2,61,63.9,41.5,59.1L41.7,58z M72,117.7L57.6,68.2C68,74.9,76.8,85.5,80,92.8
	l1.7,6.1l15.8-40.5l17.1,0l-25.5,59.2L72,117.7z M111.1,118l10.1-60h16.2l-10.1,60H111.1z M155.4,118.6c-7.3-0.1-14.2-1.5-18-3.2
	l2.3-13.3l2.1,0.9c5.3,2.2,8.8,3.1,15.2,3.1c4.6,0,9.6-1.8,9.7-5.8c0-2.6-2.1-4.5-8.4-7.4c-6.1-2.8-14.3-7.6-14.2-16.1
	c0.1-11.5,11.4-19.6,27.3-19.6c6.3,0,11.3,1.3,14.5,2.5l-2.2,12.9l-1.5-0.7c-3-1.2-6.8-2.4-12.1-2.3c-6.3,0-9.3,2.6-9.3,5.1
	c0,2.8,3.4,4.6,9.1,7.4c9.3,4.2,13.7,9.4,13.6,16.1C183.4,110.7,172.4,118.6,155.4,118.6z M225.5,118c0,0-1.5-6.9-2-9
	c-2.3,0-18.9,0-20.7,0c-0.6,1.6-3.4,9-3.4,9h-17l24-54.7c1.7-3.9,4.6-5.3,8.5-5.3h12.5l13.1,60H225.5z"/>
</svg>
