<?xml version="1.0" encoding="utf-8"?>
<!-- Generator: Adobe Illustrator 22.0.0, SVG Export Plug-In . SVG Version: 6.00 Build 0)  -->
<svg version="1.1" id="Layer_1" xmlns="http://www.w3.org/2000/svg" xmlns:xlink="http://www.w3.org/1999/xlink" x="0px" y="0px"
	 viewBox="0 0 144 145" style="enable-background:new 0 0 144 145;" xml:space="preserve">
<style type="text/css">
	.st0{fill:#F16E64;}
</style>
<g>
	<path class="st0" d="M72.3,48C59,48,48.1,58.9,48.1,72.3c0,13.4,10.9,24.2,24.2,24.2c13.4,0,24.2-10.9,24.2-24.2
		C96.6,58.9,85.7,48,72.3,48z"/>
	<g>
		<path class="st0" d="M106.9,34.2c-1.9,0-3.5,1.6-3.5,3.5c0,1.9,1.6,3.5,3.5,3.5c1.9,0,3.5-1.6,3.5-3.5
			C110.4,35.8,108.8,34.2,106.9,34.2z"/>
		<path class="st0" d="M107.7,0H35.4C15.5,0-0.5,16.4-0.5,36.4v72.3c0,19.9,16,36.3,35.9,36.3h72.3c20,0,36.8-16.4,36.8-36.4V36.4
			C144.5,16.4,127.7,0,107.7,0z M72.3,103.4c-17.2,0-31.1-14-31.1-31.1c0-17.2,14-31.1,31.1-31.1c17.2,0,31.2,14,31.2,31.1
			C103.5,89.4,89.5,103.4,72.3,103.4z M106.9,48c-5.7,0-10.4-4.7-10.4-10.4c0-5.7,4.7-10.4,10.4-10.4c5.7,0,10.4,4.7,10.4,10.4
			C117.3,43.4,112.7,48,106.9,48z"/>
	</g>
</g>
</svg>
