<?xml version="1.0" encoding="utf-8"?>
<!-- Generator: Adobe Illustrator 25.4.1, SVG Export Plug-In . SVG Version: 6.00 Build 0)  -->
<svg version="1.1" id="Layer_1" xmlns="http://www.w3.org/2000/svg" xmlns:xlink="http://www.w3.org/1999/xlink" x="0px" y="0px"
	 viewBox="0 0 65 56" style="enable-background:new 0 0 65 56;" xml:space="preserve">
<style type="text/css">
	.st0{fill:none;stroke:#284F5E;stroke-width:1.3362;stroke-miterlimit:10;}
	.st1{fill:#284F5E;}
	.st2{fill:none;}
</style>
<g>
	<path class="st0" d="M53.4,28c0,14.3-11.6,25.8-25.8,25.8S1.8,42.3,1.8,28S13.4,2.2,27.6,2.2S53.4,13.7,53.4,28z"/>
	<g>
		<g>
			<g>
				<path class="st1" d="M22.9,16.2l-6-6c-0.3-0.3-0.8-0.3-1.1,0c-0.3,0.3-0.3,0.8,0,1.1l5.5,5.5l-4.9,4.9l-5.5-5.5
					c-0.3-0.3-0.8-0.3-1.1,0c-0.3,0.3-0.3,0.8,0,1.1l6,6c0.1,0.1,0.3,0.2,0.5,0.2s0.4-0.1,0.5-0.2l6-6C23.2,17,23.2,16.5,22.9,16.2z
					"/>
			</g>
		</g>
		<g>
			<g>
				<path class="st1" d="M27.8,18.2l-2.4-2.4c-0.9-0.9-2.3-0.9-3.2,0l-6.8,6.8c-0.4,0.4-0.7,1-0.7,1.6s0.2,1.2,0.7,1.6
					c0.7,0.7,1.6,1.7,2.3,2.4c0.4,0.4,1,0.7,1.6,0.7l0,0c0.6,0,1.2-0.2,1.6-0.7l6.9-6.9C28.7,20.5,28.7,19,27.8,18.2z M26.7,20.3
					l-6.9,6.9c-0.1,0.1-0.4,0.2-0.5,0.2c-0.2,0-0.4-0.1-0.5-0.2c-0.7-0.7-1.6-1.7-2.4-2.4c-0.1-0.1-0.2-0.3-0.2-0.5s0.1-0.4,0.2-0.5
					l6.8-6.8c0.1-0.1,0.3-0.2,0.5-0.2s0.4,0.1,0.5,0.2l2.4,2.4c0.1,0.1,0.2,0.3,0.2,0.5C27,19.9,26.9,20.1,26.7,20.3z"/>
			</g>
		</g>
		<g>
			<g>
				<path class="st1" d="M31.1,26l-4.5-4.5c-0.3-0.3-0.8-0.3-1.1,0c-0.3,0.3-0.3,0.8,0,1.1l4,4L26.1,30l-4-4c-0.3-0.3-0.8-0.3-1.1,0
					c-0.3,0.3-0.3,0.8,0,1.1l4.5,4.5c0.1,0.1,0.3,0.2,0.5,0.2s0.4-0.1,0.5-0.2l4.5-4.5C31.4,26.7,31.4,26.3,31.1,26z"/>
			</g>
		</g>
		<g>
			<g>
				<path class="st1" d="M24.4,19.2c-0.3-0.3-0.8-0.3-1.1,0l-4.5,4.5c-0.3,0.3-0.3,0.8,0,1.1c0.1,0.1,0.3,0.2,0.5,0.2
					s0.4-0.1,0.5-0.2l4.5-4.5C24.7,20,24.7,19.5,24.4,19.2z"/>
			</g>
		</g>
		<g>
			<g>
				<path class="st1" d="M45.4,38.7l-4.5-4.5c-0.3-0.3-0.8-0.3-1.1,0l-6,6c-0.3,0.3-0.3,0.8,0,1.1l4.5,4.5c0.1,0.1,0.3,0.2,0.5,0.2
					s0.4-0.1,0.5-0.2c0.3-0.3,0.3-0.8,0-1.1l-4-4l4.9-4.9l4,4c0.3,0.3,0.8,0.3,1.1,0C45.7,39.5,45.7,39,45.4,38.7z"/>
			</g>
		</g>
		<g>
			<g>
				<path class="st1" d="M41,34.5c0-0.1-0.1-0.2-0.2-0.3c-0.3-0.3-1.5-2.2-4.1-6.5c-0.4-0.6-1-1-1.6-1c-0.7-0.1-1.4,0.2-1.9,0.6
					l-6.3,6.3c-0.5,0.5-0.7,1.2-0.6,1.8c0.1,0.7,0.5,1.3,1,1.7l6.7,4.2c0.1,0.1,0.3,0.1,0.4,0.1c0.2,0,0.4-0.1,0.5-0.2l6-6
					C41.1,35.1,41.1,34.8,41,34.5z M34.2,39.8L28,35.9c-0.2-0.1-0.3-0.3-0.3-0.6c0-0.2,0.1-0.5,0.2-0.6l6.3-6.3
					c0.1-0.1,0.3-0.2,0.5-0.2h0.1c0.1,0,0.4,0.1,0.5,0.3c2.2,3.6,3.3,5.3,3.9,6.2L34.2,39.8z"/>
			</g>
		</g>
		<g>
			<g>
				<path class="st1" d="M36.4,31.2c-0.3-0.3-0.8-0.3-1.1,0l-4.5,4.5c-0.3,0.3-0.3,0.8,0,1.1c0.1,0.1,0.3,0.2,0.5,0.2
					s0.4-0.1,0.5-0.2l4.5-4.5C36.7,32,36.7,31.5,36.4,31.2z"/>
			</g>
		</g>
		<g>
			<g>
				<path class="st1" d="M31.3,17.5c-0.4,0-0.8,0.3-0.8,0.8v1.5c0,0.4,0.3,0.8,0.8,0.8c0.4,0,0.7-0.3,0.7-0.8v-1.5
					C32.1,17.8,31.8,17.5,31.3,17.5z"/>
			</g>
		</g>
		<g>
			<g>
				<path class="st1" d="M37.3,23.5h-1.5c-0.4,0-0.8,0.3-0.8,0.8c0,0.4,0.3,0.8,0.8,0.8h1.5c0.4,0,0.8-0.3,0.8-0.8
					S37.8,23.5,37.3,23.5z"/>
			</g>
		</g>
		<g>
			<g>
				<path class="st1" d="M36.4,19.2c-0.3-0.3-0.8-0.3-1.1,0l-1.5,1.5c-0.3,0.3-0.3,0.8,0,1.1c0.1,0.1,0.3,0.2,0.5,0.2
					s0.4-0.1,0.5-0.2l1.5-1.5C36.7,20,36.7,19.5,36.4,19.2z"/>
			</g>
		</g>
		<g>
			<g>
				<path class="st1" d="M23.8,35.5c-0.4,0-0.8,0.3-0.8,0.8v1.5c0,0.4,0.3,0.8,0.8,0.8c0.4,0,0.8-0.3,0.8-0.8v-1.5
					C24.6,35.8,24.2,35.5,23.8,35.5z"/>
			</g>
		</g>
		<g>
			<g>
				<path class="st1" d="M19.3,31h-1.5c-0.4,0-0.8,0.3-0.8,0.8c0,0.4,0.3,0.7,0.8,0.7h1.5c0.4,0,0.8-0.3,0.8-0.7
					C20.1,31.3,19.7,31,19.3,31z"/>
			</g>
		</g>
		<g>
			<g>
				<path class="st1" d="M21.4,34.2c-0.3-0.3-0.8-0.3-1.1,0l-1.5,1.5c-0.3,0.3-0.3,0.8,0,1.1c0.1,0.1,0.3,0.2,0.5,0.2
					s0.4-0.1,0.5-0.2l1.5-1.5C21.7,35,21.7,34.5,21.4,34.2z"/>
			</g>
		</g>
	</g>
	<circle class="st1" cx="51.4" cy="38.8" r="11.8"/>
	<rect x="45.6" y="34.1" class="st2" width="12.7" height="10.5"/>
</g>
</svg>
