<?xml version="1.0" encoding="utf-8"?>
<!-- Generator: Adobe Illustrator 22.0.0, SVG Export Plug-In . SVG Version: 6.00 Build 0)  -->
<svg version="1.1" id="Layer_1" xmlns="http://www.w3.org/2000/svg" xmlns:xlink="http://www.w3.org/1999/xlink" x="0px" y="0px"
	 viewBox="0 0 65 56" style="enable-background:new 0 0 65 56;" xml:space="preserve">
<style type="text/css">
	.st0{fill:none;stroke:#284F5E;stroke-width:1.3362;stroke-miterlimit:10;}
	.st1{fill:#284F5E;}
	.st2{fill:#FFFFFF;}
	.st3{fill:none;stroke:#FFFFFF;stroke-width:1.9848;stroke-linecap:round;stroke-linejoin:round;stroke-miterlimit:10;}
</style>
<g>
	<path class="st0" d="M53.4,28c0,14.3-11.6,25.8-25.8,25.8S1.8,42.3,1.8,28c0-14.3,11.6-25.8,25.8-25.8S53.4,13.7,53.4,28z"/>
	<circle class="st1" cx="51.4" cy="38.8" r="11.8"/>
	<polyline class="st3" points="47.8,38.5 51.1,41.8 57.1,35.9 	"/>
	<path class="st1" d="M42.9,31.2c-0.2-0.1-0.4-0.1-0.6-0.1l-4.5,1.5l-2.7-1.6l3.1-1.1c0.2-0.1,0.3-0.2,0.4-0.3l0-0.1
		c0.2-0.4,0.1-0.8-0.3-1c-0.2-0.1-0.4-0.1-0.6-0.1L33.2,30l-2.4-1.4v-1.2l2.4-1.4l4.5,1.5c0.2,0.1,0.4,0,0.6-0.1
		c0.4-0.2,0.5-0.7,0.3-1l0-0.1c-0.1-0.2-0.2-0.3-0.4-0.3l-3.1-1.1l2.7-1.6l4.5,1.5c0.2,0.1,0.4,0,0.6-0.1c0.4-0.2,0.5-0.7,0.3-1
		l0-0.1c-0.1-0.2-0.2-0.3-0.4-0.3l-3.1-1.1l1.5-0.9c0.5-0.3,0.7-1,0.4-1.5c-0.3-0.5-1-0.7-1.5-0.4l-1.5,0.9l0.6-3.2
		c0-0.2,0-0.4-0.1-0.5l0-0.1c-0.2-0.4-0.7-0.5-1-0.3c-0.2,0.1-0.3,0.3-0.4,0.5l-0.9,4.6L34,23.1l0.6-3.2c0-0.2,0-0.4-0.1-0.5l0-0.1
		c-0.2-0.4-0.7-0.5-1-0.3c-0.2,0.1-0.3,0.3-0.4,0.5l-0.9,4.6l-1.7,1l-1.8-0.9v-2.1l3.5-3.1c0.2-0.1,0.2-0.3,0.2-0.6
		c0-0.4-0.3-0.7-0.7-0.7h-0.1c-0.2,0-0.3,0.1-0.5,0.2L28.7,20v-3.1l3.5-3.1c0.2-0.1,0.2-0.3,0.2-0.6c0-0.4-0.3-0.7-0.7-0.7h-0.1
		c-0.2,0-0.3,0.1-0.5,0.2l-2.5,2.1V13c0-0.6-0.5-1.1-1.1-1.1c-0.6,0-1.1,0.5-1.1,1.1v1.8L24,12.6c-0.1-0.1-0.3-0.2-0.5-0.2h-0.1
		c-0.4,0-0.7,0.3-0.7,0.7c0,0.2,0.1,0.4,0.2,0.6l3.5,3.1V20L24,17.9c-0.1-0.1-0.3-0.2-0.5-0.2h-0.1c-0.4,0-0.7,0.3-0.7,0.7
		c0,0.2,0.1,0.4,0.2,0.6l3.5,3.1v2.1l-1.8,0.9l-1.7-1l-0.9-4.6c0-0.2-0.2-0.4-0.4-0.5c-0.4-0.2-0.8-0.1-1,0.3l0,0.1
		c-0.1,0.2-0.1,0.3-0.1,0.5l0.6,3.2l-2.7-1.6l-0.9-4.6c0-0.2-0.2-0.4-0.4-0.5c-0.4-0.2-0.8-0.1-1,0.3l0,0.1C16,16.9,16,17.1,16,17.2
		l0.6,3.2l-1.5-0.9c-0.5-0.3-1.2-0.1-1.5,0.4c-0.3,0.5-0.1,1.2,0.4,1.5l1.5,0.9l-3.1,1.1c-0.2,0.1-0.3,0.2-0.4,0.3l0,0.1
		c-0.2,0.4-0.1,0.8,0.3,1c0.2,0.1,0.4,0.1,0.6,0.1l4.5-1.5l2.7,1.6L17,26c-0.2,0.1-0.3,0.2-0.4,0.3l0,0.1c-0.2,0.4-0.1,0.8,0.3,1
		c0.2,0.1,0.4,0.1,0.6,0.1l4.5-1.5l2.4,1.4v1.2L21.9,30l-4.5-1.5c-0.2-0.1-0.4,0-0.6,0.1c-0.4,0.2-0.5,0.7-0.3,1l0,0.1
		c0.1,0.2,0.2,0.3,0.4,0.3l3.1,1.1l-2.7,1.6l-4.5-1.5c-0.2-0.1-0.4,0-0.6,0.1c-0.4,0.2-0.5,0.7-0.3,1l0,0.1c0.1,0.2,0.2,0.3,0.4,0.3
		l3.1,1.1L14,34.6c-0.5,0.3-0.7,1-0.4,1.5c0.3,0.5,1,0.7,1.5,0.4l1.5-0.9L16,38.8c0,0.2,0,0.4,0.1,0.5l0,0.1c0.2,0.4,0.7,0.5,1,0.3
		c0.2-0.1,0.3-0.3,0.4-0.5l0.9-4.6l2.7-1.6l-0.6,3.2c0,0.2,0,0.4,0.1,0.5l0,0.1c0.2,0.4,0.7,0.5,1,0.3c0.2-0.1,0.3-0.3,0.4-0.5
		l0.9-4.6l1.7-1l1.8,0.9v2.1L23,37c-0.2,0.1-0.2,0.3-0.2,0.6c0,0.4,0.3,0.7,0.7,0.7h0.1c0.2,0,0.3-0.1,0.5-0.2l2.5-2.1v3.1L23,42.3
		c-0.2,0.1-0.2,0.3-0.2,0.6c0,0.4,0.3,0.7,0.7,0.7h0.1c0.2,0,0.3-0.1,0.5-0.2l2.5-2.1V43c0,0.6,0.5,1.1,1.1,1.1
		c0.6,0,1.1-0.5,1.1-1.1v-1.8l2.5,2.1c0.1,0.1,0.3,0.2,0.5,0.2h0.1c0.4,0,0.7-0.3,0.7-0.7c0-0.2-0.1-0.4-0.2-0.6l-3.5-3.1V36
		l2.5,2.1c0.1,0.1,0.3,0.2,0.5,0.2h0.1c0.4,0,0.7-0.3,0.7-0.7c0-0.2-0.1-0.4-0.2-0.6l-3.5-3.1v-2.1l1.8-0.9l1.7,1l0.9,4.6
		c0,0.2,0.2,0.4,0.4,0.5c0.4,0.2,0.8,0.1,1-0.3l0-0.1c0.1-0.2,0.1-0.3,0.1-0.5L34,32.9l2.7,1.6l0.9,4.6c0,0.2,0.2,0.4,0.4,0.5
		c0.4,0.2,0.8,0.1,1-0.3l0-0.1c0.1-0.2,0.1-0.3,0.1-0.5l-0.6-3.2l1.5,0.9c0.5,0.3,1.2,0.1,1.5-0.4c0.3-0.5,0.1-1.2-0.4-1.5l-1.5-0.9
		l3.1-1.1c0.2-0.1,0.3-0.2,0.4-0.3l0-0.1C43.3,31.9,43.2,31.4,42.9,31.2z M28.7,29.1l-1.1,0.5l-1.1-0.5v-2.1l1.1-0.5l1.1,0.5V29.1z"
		/>
</g>
</svg>
