<?xml version="1.0" encoding="utf-8"?>
<!-- Generator: Adobe Illustrator 22.0.0, SVG Export Plug-In . SVG Version: 6.00 Build 0)  -->
<svg version="1.1" id="Layer_1" xmlns="http://www.w3.org/2000/svg" xmlns:xlink="http://www.w3.org/1999/xlink" x="0px" y="0px"
	 viewBox="0 0 281 176" style="enable-background:new 0 0 281 176;" xml:space="preserve">
<style type="text/css">
	.st0{fill:#F26F64;}
</style>
<path class="st0" d="M230,156.6c-0.1-0.1-0.2-0.2-0.3-0.2c-0.1-0.1-0.3-0.1-0.4-0.1c-0.2,0-0.3,0-0.4,0.1c-0.1,0.1-0.2,0.1-0.3,0.2
	c-0.1,0.1-0.2,0.2-0.2,0.3c-0.1,0.1-0.1,0.3-0.1,0.4c0,0.2,0,0.3,0.1,0.4c0.1,0.1,0.1,0.2,0.2,0.3c0.1,0.1,0.2,0.2,0.3,0.2
	c0.1,0.1,0.3,0.1,0.4,0.1c0.1,0,0.3,0,0.4-0.1c0.1-0.1,0.2-0.1,0.3-0.2c0.1-0.1,0.2-0.2,0.2-0.3c0.1-0.1,0.1-0.3,0.1-0.4
	c0-0.2,0-0.3-0.1-0.4C230.1,156.8,230.1,156.7,230,156.6z M229.4,158l-0.4-0.5h0v0.5h-0.4v-1.3h0.7c0.2,0,0.3,0,0.4,0.1
	c0.1,0.1,0.1,0.2,0.1,0.3c0,0.1,0,0.2-0.1,0.3c-0.1,0.1-0.2,0.1-0.3,0.1l0.4,0.5H229.4z"/>
<path class="st0" d="M229.4,157c0,0-0.1,0-0.1,0H229v0.2h0.3c0.1,0,0.1,0,0.1,0C229.4,157.2,229.5,157.2,229.4,157
	C229.5,157.1,229.4,157.1,229.4,157z"/>
<path class="st0" d="M97.4,147.2c-0.4-0.4-0.9-0.8-1.4-1c-0.5-0.2-1.2-0.4-1.8-0.4c-0.7,0-1.3,0.1-1.9,0.4c-0.5,0.3-1,0.6-1.4,1
	c-0.4,0.4-0.7,0.9-0.9,1.5c-0.2,0.6-0.3,1.2-0.3,1.8c0,0.6,0.1,1.3,0.3,1.8c0.2,0.6,0.5,1.1,0.9,1.5c0.4,0.4,0.8,0.8,1.4,1
	c0.5,0.3,1.2,0.4,1.9,0.4c0.7,0,1.3-0.1,1.8-0.4c0.5-0.2,1-0.6,1.4-1c0.4-0.4,0.7-0.9,0.9-1.5c0.2-0.6,0.3-1.2,0.3-1.9
	c0-0.7-0.1-1.3-0.3-1.9C98.1,148.2,97.8,147.7,97.4,147.2z"/>
<path class="st0" d="M218.2,147.2c-0.4-0.4-0.9-0.8-1.4-1c-0.5-0.2-1.2-0.4-1.8-0.4c-0.7,0-1.3,0.1-1.9,0.4c-0.5,0.3-1,0.6-1.4,1
	c-0.4,0.4-0.7,0.9-0.9,1.5c-0.2,0.6-0.3,1.2-0.3,1.8c0,0.6,0.1,1.3,0.3,1.8c0.2,0.6,0.5,1.1,0.9,1.5c0.4,0.4,0.8,0.8,1.4,1
	c0.6,0.3,1.2,0.4,1.9,0.4c0.7,0,1.3-0.1,1.8-0.4c0.5-0.2,1-0.6,1.4-1c0.4-0.4,0.7-0.9,0.9-1.5c0.2-0.6,0.3-1.2,0.3-1.9
	c0-0.7-0.1-1.3-0.3-1.9C218.9,148.2,218.6,147.7,218.2,147.2z"/>
<path class="st0" d="M188.4,147.2c-0.4-0.4-0.9-0.8-1.4-1c-0.5-0.2-1.2-0.4-1.8-0.4c-0.7,0-1.3,0.1-1.9,0.4c-0.5,0.3-1,0.6-1.4,1
	c-0.4,0.4-0.7,0.9-0.9,1.5c-0.2,0.6-0.3,1.2-0.3,1.8c0,0.6,0.1,1.3,0.3,1.8c0.2,0.6,0.5,1.1,0.9,1.5c0.4,0.4,0.8,0.8,1.4,1
	c0.5,0.3,1.2,0.4,1.9,0.4c0.7,0,1.3-0.1,1.8-0.4c0.5-0.2,1-0.6,1.4-1c0.4-0.4,0.7-0.9,0.9-1.5c0.2-0.6,0.3-1.2,0.3-1.9
	c0-0.7-0.1-1.3-0.3-1.9C189.1,148.2,188.8,147.7,188.4,147.2z"/>
<path class="st0" d="M141.5,145.7c-0.6,0-1.1,0.1-1.5,0.2c-0.4,0.2-0.8,0.4-1.2,0.7s-0.6,0.6-0.8,1.1c-0.2,0.4-0.4,1.3-0.4,1.3h7.7
	c-0.2-1-0.6-1.9-1.2-2.5C143.4,145.8,142.6,145.7,141.5,145.7z"/>
<path class="st0" d="M175.6,20c-12.1,0-23.3,4-32.3,10.7c12.3,10.5,20.2,26.1,20.2,43.5c0,17.4-7.8,33-20.2,43.5
	c9,6.7,20.2,10.7,32.3,10.7c29.9,0,54.2-24.3,54.2-54.2C229.8,44.3,205.5,20,175.6,20z"/>
<path class="st0" d="M160.6,74.2c0-16.7-7.6-31.7-19.6-41.7c-12,10-19.6,24.9-19.6,41.7c0,16.7,7.6,31.7,19.6,41.7
	C153,106,160.6,91,160.6,74.2z"/>
<path class="st0" d="M118.5,74.2c0-17.4,7.8-33,20.2-43.5c-9-6.7-20.2-10.7-32.3-10.7c-29.9,0-54.2,24.3-54.2,54.2
	c0,29.9,24.3,54.2,54.2,54.2c12.1,0,23.3-4,32.3-10.7C126.4,107.2,118.5,91.6,118.5,74.2z"/>
<path class="st0" d="M251,0H30C13.4,0,0,13.4,0,30v116c0,16.6,13.4,30,30,30h221c16.6,0,30-13.4,30-30V30C281,13.4,267.6,0,251,0z
	 M84,158h-4v-8.2c0-1.2-0.1-2.2-0.7-2.9c-0.6-0.7-1.2-1-2.3-1c-0.5,0-1,0.1-1.5,0.3c-0.4,0.2-0.9,0.4-1.2,0.7
	c-0.3,0.3-0.7,0.7-0.9,1.2c-0.2,0.5-0.5,1-0.5,1.7v8.2h-3v-8.2c0-1.2-0.2-2.2-0.7-2.9c-0.6-0.7-1.3-1-2.3-1c-0.5,0-1,0.1-1.4,0.3
	c-0.4,0.2-0.9,0.4-1.2,0.7c-0.3,0.3-0.7,0.7-0.9,1.2c-0.2,0.5-0.4,1-0.4,1.7v8.2h-3v-15h3v2c1-0.4,0.7-0.8,1.1-1.1
	c0.4-0.3,0.8-0.5,1.2-0.7c0.4-0.2,0.8-0.3,1.2-0.3c0.4-0.1,0.8-0.1,1.1-0.1c1.1,0,2.1,0.2,2.9,0.7c0.9,0.5,1.5,1.1,2,1.9
	c0.3-0.5,0.7-1,1.1-1.3c0.4-0.3,0.9-0.6,1.3-0.8c0.5-0.2,0.9-0.3,1.4-0.4c0.5-0.1,0.9-0.1,1.4-0.1c0.8,0,1.6,0.1,2.3,0.4
	c0.7,0.3,1.3,0.7,1.8,1.2c0.5,0.5,1.1,1.1,1.4,1.9c0.3,0.7,0.6,1.5,0.6,2.4V158z M102,158h-3v-1.8c-1,0.7-1.4,1.2-2.2,1.6
	c-0.8,0.4-1.9,0.6-3,0.6c-1,0-2-0.2-2.9-0.6c-0.9-0.4-1.7-0.9-2.3-1.6c-0.7-0.7-1.2-1.5-1.6-2.5c-0.4-1-0.6-2-0.6-3.1
	c0-1.1,0.2-2.2,0.6-3.1c0.4-1,0.9-1.8,1.6-2.5c0.7-0.7,1.5-1.2,2.4-1.6c0.9-0.4,1.9-0.6,3-0.6c1.1,0,2.1,0.2,2.9,0.6
	c0.8,0.4,1.2,0.9,2.2,1.6v-2h3V158z M117.4,155.5c-0.3,0.6-0.7,1.1-1.3,1.5c-0.6,0.4-1.3,0.8-2.1,1c-0.8,0.2-1.8,0.4-2.8,0.4
	c-0.4,0-0.8,0-1.3-0.1c-0.5,0-1-0.1-1.6-0.3c-0.6-0.1-1.1-0.3-1.7-0.6c-0.6-0.2-1.1-0.6-1.7-1l1.5-2.4c0.3,0.2,0.6,0.4,0.9,0.6
	c0.3,0.2,0.7,0.3,1.1,0.5c0.4,0.1,0.8,0.2,1.3,0.3c0.5,0.1,1,0.1,1.6,0.1c1.1,0,1.9-0.2,2.5-0.5c0.6-0.3,0.8-0.8,0.8-1.3
	c0-0.4-0.2-0.8-0.6-1c-0.4-0.3-1.1-0.5-1.9-0.6l-1.5-0.2c-1.6-0.2-2.9-0.7-3.7-1.4c-0.8-0.7-1.3-1.7-1.3-2.9c0-0.7,0.1-1.4,0.4-2
	c0.3-0.6,0.7-1.1,1.2-1.5c0.5-0.4,1.2-0.7,1.9-0.9c0.8-0.2,1.6-0.3,2.5-0.3c1.2,0,2.3,0.1,3.3,0.4c1,0.3,1.9,0.7,2.7,1.1l-1.4,2.5
	c-0.2-0.1-0.5-0.3-0.8-0.4c-0.3-0.1-0.7-0.3-1.1-0.4c-0.4-0.1-0.8-0.2-1.3-0.3c-0.4-0.1-0.9-0.1-1.4-0.1c-0.9,0-1.6,0.2-2.1,0.5
	c-0.5,0.3-0.7,0.7-0.7,1.3c0,0.3,0.1,0.5,0.2,0.6c0.1,0.2,0.3,0.3,0.5,0.4c0.2,0.1,0.5,0.2,0.8,0.3c0.3,0.1,0.6,0.1,1,0.2l1.5,0.2
	c1.6,0.2,2.9,0.7,3.8,1.4c0.9,0.7,1.4,1.7,1.4,3C117.8,154.3,117.7,154.9,117.4,155.5z M131,158c-0.7,0.3-1.6,0.4-2.5,0.4
	c-1.7,0-3-0.5-4-1.4c-0.9-0.9-1.5-2.4-1.5-4.3V146h-3v-3h3v-4h4v4h5v3h-5v6.6c0,0.5-0.2,0.9-0.1,1.3c0.1,0.3,0,0.6,0.2,0.9
	c0.2,0.2,0.5,0.4,0.7,0.5c0.3,0.1,0.6,0.2,0.9,0.2c0.5,0,1-0.1,1.5-0.3c0.3-0.1,0.7-0.3,1-0.4l1.1,2.7
	C131.9,157.5,131.5,157.8,131,158z M148.6,151.3c0,0.2,0,0.7,0,0.7h-10.9c0.1,0,0.3,1.1,0.6,1.6c0.3,0.5,0.6,0.8,1,1.1
	c0.4,0.3,0.8,0.5,1.3,0.7c0.5,0.1,1,0.2,1.5,0.2c0.7,0,1.5-0.1,2.2-0.4c0.7-0.3,1.4-0.7,2-1.1l1.6,2.3c-0.9,0.8-1.9,1.3-2.9,1.6
	c-1,0.3-2.1,0.5-3.2,0.5c-1.1,0-2.1-0.2-3.1-0.6c-0.9-0.4-1.7-0.9-2.4-1.6c-0.7-0.7-1.2-1.5-1.6-2.4c-0.4-1-0.6-2-0.6-3.2
	c0-1.2,0.2-2.2,0.5-3.2c0.4-1,0.9-1.8,1.5-2.5c0.6-0.7,1.4-1.2,2.3-1.6c0.9-0.4,1.9-0.6,3-0.6c1,0,2,0.2,2.8,0.6
	c0.9,0.4,1.6,0.9,2.2,1.6c0.6,0.7,1.1,1.5,1.4,2.5c0.3,1,0.5,2,0.5,3.2C148.6,150.9,148.6,151.1,148.6,151.3z M160.5,146.2
	c-0.2-0.1-0.4-0.1-0.7-0.2c-0.5-0.1-0.9-0.1-1.3-0.1c-0.5,0-1,0.1-1.4,0.3c-0.4,0.2-0.8,0.4-1.1,0.8c-0.3,0.3-0.6,0.8-0.8,1.2
	c-0.2,0.5-0.3,1.1-0.3,1.7v8.1h-3v-15h3v2.2c1-0.7,1.1-1.5,1.9-1.8c0.7-0.3,1.6-0.5,2.5-0.5c0.5,0,0.9,0,1.3,0.1
	c0.3,0,0.5,0.1,0.8,0.2L160.5,146.2z M166.1,152.5c0.2,0.6,0.6,1.1,1,1.5c0.4,0.4,0.9,0.7,1.5,1c0.6,0.2,1.2,0.3,1.8,0.3
	c0.7,0,1.4-0.1,2-0.3c0.6-0.2,1.1-0.5,1.6-0.9l1.6,2.6c-0.6,0.5-1.2,0.8-2,1.1c-1,0.4-2,0.6-3.2,0.6c-1.1,0-2.2-0.2-3.2-0.6
	c-1-0.4-1.8-0.9-2.5-1.6c-0.7-0.7-1.3-1.5-1.7-2.5c-0.4-0.9-0.6-2-0.6-3.1c0-1.1,0.2-2.1,0.6-3.1c0.4-0.9,1-1.8,1.7-2.5
	c0.7-0.7,1.5-1.2,2.5-1.6c1-0.4,2-0.6,3.2-0.6c1.1,0,2.2,0.2,3.2,0.6c0.7,0.3,1.4,0.7,2,1.1l-1.6,2.6c-0.4-0.4-1-0.7-1.6-0.9
	c-0.6-0.2-1.3-0.3-2-0.3c-0.7,0-1.3,0.1-1.8,0.3c-0.6,0.2-1.1,0.6-1.5,1c-0.4,0.4-0.7,0.9-1,1.5c-0.2,0.6-0.4,1.2-0.4,1.9
	C165.8,151.3,165.9,152,166.1,152.5z M193,158h-3v-1.8c-1,0.7-1.4,1.2-2.2,1.6c-0.8,0.4-2,0.6-3,0.6c-1,0-2-0.2-2.9-0.6
	c-0.9-0.4-1.7-0.9-2.3-1.6c-0.7-0.7-1.2-1.5-1.6-2.5c-0.4-1-0.6-2-0.6-3.1c0-1.1,0.2-2.2,0.6-3.1c0.4-1,0.9-1.8,1.6-2.5
	c0.7-0.7,1.5-1.2,2.4-1.6c0.9-0.4,1.9-0.6,3-0.6c1.1,0,2.1,0.2,2.9,0.6c0.8,0.4,1.2,0.9,2.2,1.6v-2h3V158z M205.3,146.2
	c-0.2-0.1-0.4-0.1-0.6-0.2c-0.5-0.1-0.9-0.1-1.3-0.1c-0.5,0-1,0.1-1.4,0.3c-0.4,0.2-0.8,0.4-1.1,0.8c-0.3,0.3-0.5,0.8-0.7,1.2
	c-0.2,0.5-0.2,1.1-0.2,1.7v8.1h-3v-15h3v2.2c0-0.7,1-1.5,1.8-1.8c0.7-0.3,1.5-0.5,2.4-0.5c0.5,0,0.9,0,1.3,0.1
	c0.3,0,0.5,0.1,0.8,0.2L205.3,146.2z M222,158h-2v-1.8c-1,0.7-1.6,1.2-2.3,1.6c-0.8,0.4-2.1,0.6-3.1,0.6c-1,0-2-0.2-2.9-0.6
	c-0.9-0.4-1.7-0.9-2.3-1.6c-0.7-0.7-1.2-1.5-1.6-2.5c-0.4-1-0.6-2-0.6-3.1c0-1.1,0.2-2.2,0.6-3.1c0.4-1,0.9-1.8,1.6-2.5
	c0.7-0.7,1.5-1.2,2.4-1.6c0.9-0.4,2-0.6,3-0.6c1.1,0,2.2,0.2,2.9,0.6c0.8,0.4,1.3,0.9,2.3,1.6v-8h2V158z M230.6,157.9
	c-0.1,0.2-0.2,0.3-0.3,0.5c-0.1,0.1-0.3,0.2-0.5,0.3c-0.2,0.1-0.4,0.1-0.6,0.1c-0.2,0-0.4,0-0.6-0.1c-0.2-0.1-0.4-0.2-0.5-0.3
	c-0.1-0.1-0.2-0.3-0.3-0.5c-0.1-0.2-0.1-0.4-0.1-0.6c0-0.2,0-0.4,0.1-0.6c0.1-0.2,0.2-0.3,0.3-0.5c0.1-0.1,0.3-0.2,0.5-0.3
	c0.2-0.1,0.4-0.1,0.6-0.1c0.2,0,0.4,0,0.6,0.1c0.2,0.1,0.4,0.2,0.5,0.3c0.1,0.1,0.2,0.3,0.3,0.5c0.1,0.2,0.1,0.4,0.1,0.6
	C230.7,157.5,230.7,157.7,230.6,157.9z M175.6,131.3c-13,0-25-4.4-34.6-11.7c-9.6,7.4-21.6,11.7-34.6,11.7
	c-31.5,0-57.1-25.6-57.1-57.1c0-31.5,25.6-57.1,57.1-57.1c13,0,25,4.4,34.6,11.7c9.6-7.4,21.6-11.7,34.6-11.7
	c31.5,0,57.1,25.6,57.1,57.1C232.7,105.7,207.1,131.3,175.6,131.3z"/>
</svg>
