<?xml version="1.0" encoding="utf-8"?>
<!-- Generator: Adobe Illustrator 22.0.0, SVG Export Plug-In . SVG Version: 6.00 Build 0)  -->
<svg version="1.1" id="Layer_1" xmlns="http://www.w3.org/2000/svg" xmlns:xlink="http://www.w3.org/1999/xlink" x="0px" y="0px"
	 viewBox="0 0 326 144" style="enable-background:new 0 0 326 144;" xml:space="preserve">
<style type="text/css">
	.st0{fill:#FFFFFF;}
	.st1{fill:#C7C7C7;}
	.st2{fill:#202020;}
	.st3{fill:#A8A8A8;}
	.st4{fill:#C0C0C0;}
</style>
<g>
	<path class="st0" d="M63.2,31.9c-27,0-49,22-49,49c0,27,22,49,49,49h204.1c27,0,49-22,49-49c0-27-22-49-49-49H63.2z"/>
	<path class="st1" d="M267.3,134H63.2C33.9,134,10,110.2,10,80.9c0-29.3,23.8-53.1,53.1-53.1h204.1c29.3,0,53.1,23.8,53.1,53.1
		C320.4,110.2,296.5,134,267.3,134 M63.2,31.9c-27,0-49,22-49,49c0,27,22,49,49,49h204.1c27,0,49-22,49-49c0-27-22-49-49-49H63.2z"
		/>
	<path class="st2" d="M242.8,51.1c-7.9,0-14.3,6.4-14.3,14.4c0,7.9,6.4,14.3,14.3,14.3c7.9,0,14.3-6.4,14.3-14.3
		C257.1,57.6,250.7,51.1,242.8,51.1 M242.8,72.8c-4.1,0-7.4-3.3-7.4-7.4c0-4.1,3.3-7.4,7.4-7.4c4.1,0,7.4,3.3,7.4,7.4
		C250.1,69.5,246.8,72.8,242.8,72.8"/>
	<path class="st2" d="M177,51.1c-7.9,0-14.3,6.4-14.3,14.4c0,7.9,6.4,14.3,14.3,14.3c7.9,0,14.4-6.4,14.4-14.3
		C191.3,57.6,184.9,51.1,177,51.1 M177,72.8c-4.1,0-7.4-3.3-7.4-7.4c0-4.1,3.3-7.4,7.4-7.4c4.1,0,7.4,3.3,7.4,7.4
		C184.3,69.5,181,72.8,177,72.8"/>
	<path class="st2" d="M227.5,73.2c-0.9,0.3-2.3,0.5-2.8,0.5c-2.5,0-3-0.8-3-3.2V57.3h5.9v-5.5h-5.9v-7.8h-6.6l-1.4,7.8h-4.6v0h-0.4
		c-3.8,0-6.6,2.3-8.4,5.9l-2.3-5.9h-4.7v27.5h8.1v-12c0-6,3.6-9.9,7.8-10h4.4V71c0,6.4,3.3,8.8,8.7,8.8c2.8,0,4.9-0.6,6.2-1
		L227.5,73.2z"/>
	<polyline class="st2" points="266.9,60.5 266.9,79.3 259.1,79.3 259.1,51.8 263.8,51.8 265.4,56 	"/>
	<path class="st2" d="M265.4,56c2.4-2.8,5.7-4.9,9.5-4.9c6.6,0,9.2,5.2,9.2,10.1v18.1H276V61.4c0-2.4-2-3.6-4.1-3.6
		c-2.3,0-3.7,1.3-5,2.7"/>
	<polygon class="st2" points="131.1,41.8 140.1,41.8 152.5,65.4 152.5,41.8 159.9,41.8 159.9,79.3 151.8,79.3 138.5,53.4 
		138.5,79.3 131.1,79.3 	"/>
	<polygon class="st3" points="308,27.7 308,29.1 306.1,29.1 306.1,35.7 304.5,35.7 304.5,29.1 302.6,29.1 302.6,27.7 	"/>
	<polygon class="st3" points="309.1,35.7 309.1,27.7 311.2,27.7 312.6,32.9 314,27.7 316.1,27.7 316.1,35.7 314.8,35.7 314.8,29.5 
		314.8,29.5 313.2,35.7 312,35.7 310.4,29.5 310.4,29.5 310.4,35.7 	"/>
	<path class="st3" d="M128.8,112.5l1.9-2.9c1.5,1.1,3.8,2.2,6.6,2.2c2.7,0,4.4-1.2,4.4-3.4c0-2.4-2.1-3.1-5.6-4.3
		c-3.1-1.1-6.2-2.7-6.2-7.1c0-4.1,3.3-6.4,7.6-6.4c2.9,0,5.1,0.6,6.8,1.6l-1.5,3.1c-1.4-0.8-3.2-1.3-5.2-1.3c-2.4,0-3.9,0.9-3.9,2.9
		c0,2.3,1.7,2.8,4.9,3.9c3.3,1.1,7,2.6,7,7.5c0,4.1-3,6.8-8.2,6.8C133.4,115.2,130.5,113.9,128.8,112.5"/>
	<polygon class="st3" points="152.7,91.1 166.8,91.1 166.8,94.4 156.7,94.4 156.7,100.9 164.7,100.9 164.7,104.1 156.7,104.1 
		156.7,111.6 167.5,111.6 167.5,114.9 152.7,114.9 	"/>
	<path class="st3" d="M173.2,103c0-7,3.3-12.3,10-12.3c3,0,5.3,0.9,7,2.9l-2.4,2.7c-1.4-1.4-2.6-2.1-4.6-2.1c-3.9,0-5.7,3.2-5.7,9.1
		c0,5.5,1.9,8.3,5.7,8.3c2.1,0,3.6-1.1,4.9-2.5l2.4,2.6c-1.7,2-3.9,3.4-7.3,3.4C176.4,115.2,173.2,110,173.2,103"/>
	<path class="st3" d="M197.2,105.8V91.1h4.1v15.4c0,3.3,0.8,5.4,4.3,5.4c3.4,0,4.3-2.1,4.3-5.4V91.1h4.1v14.7c0,5.9-2.3,9.4-8.4,9.4
		C199.5,115.2,197.2,111.7,197.2,105.8"/>
	<path class="st3" d="M238.8,114.9h-4.4l-4.6-10.1H226v10.1h-4V91.1h7.8c4.8,0,8.6,1.7,8.6,6.9c0,3.6-2.1,5.3-4.5,6.2L238.8,114.9z
		 M229.6,101.7c3,0,4.6-1,4.6-3.7c0-2.6-1.6-3.6-4.3-3.6H226v7.3H229.6z"/>
	<polygon class="st3" points="245.7,91.1 259.8,91.1 259.8,94.4 249.7,94.4 249.7,100.9 257.7,100.9 257.7,104.1 249.7,104.1 
		249.7,111.6 260.4,111.6 260.4,114.9 245.7,114.9 	"/>
	<path class="st3" d="M267.3,91.1h5.9c7.8,0,11.5,4.2,11.5,11.8c0,7.8-3.8,12-11.3,12h-6.2V91.1z M273,111.6c5.6,0,7.5-2.6,7.5-8.7
		c0-5.4-1.5-8.5-7-8.5h-2.2v17.2H273z"/>
	<path class="st4" d="M62.9,138.2c-31.6,0-57.3-25.7-57.3-57.3c0-31.6,25.7-57.3,57.3-57.3c31.6,0,57.3,25.7,57.3,57.3
		C120.3,112.5,94.5,138.2,62.9,138.2 M62.9,41.7c-10.5,0-20.3,4.1-27.7,11.5c-7.4,7.4-11.5,17.2-11.5,27.7
		c0,10.5,4.1,20.3,11.5,27.7c7.4,7.4,17.2,11.5,27.7,11.5c10.5,0,20.3-4.1,27.7-11.5c7.4-7.4,11.5-17.2,11.5-27.7
		c0-10.5-4.1-20.3-11.5-27.7C83.2,45.7,73.4,41.7,62.9,41.7"/>
	<rect x="125.4" y="14.7" class="st4" width="4.5" height="4.5"/>
	<rect x="125.4" y="5.8" class="st4" width="4.5" height="4.5"/>
	<rect x="112.8" y="19.1" class="st4" width="4.2" height="4.4"/>
	<rect x="104.5" y="27.7" class="st2" width="4.2" height="4.2"/>
	<rect x="117" y="23.5" class="st2" width="4.7" height="4.2"/>
	<rect x="100.3" y="23.7" class="st2" width="4.2" height="4"/>
	<rect x="112.8" y="27.7" class="st2" width="4.2" height="4.2"/>
	<rect x="121" y="10.3" class="st2" width="4.4" height="4.4"/>
	<rect x="112.8" y="14.7" class="st2" width="8.2" height="4.4"/>
	<rect x="108.7" y="19.1" class="st2" width="4.1" height="8.6"/>
	<path class="st2" d="M108.7,31.9v4.2h-4.2v-4.2h-7v3h-3.7v3.7H98v4.2h-4.2v-4.2h-4.4v6.5h-4.2v4.2h-2.8v4.2h-3.1
		c-3.4,5.1-12.1,21.1-14.7,27.6C55.2,68,47.9,62.9,42.2,61c-3.1-0.9-6.8,2.4-1.7,7.8c11.8,13,15.6,23.8,19.2,32.4
		c1.9,4.5,10.4,5.2,12.1,0.6C75.4,92,80.7,81,87,72v-4.7h3.3v-4.2h3.5v-4.9H98v-4.7h-4.2v-4.3H98v4.3h4.1l0-4.2h3.3v-5.1h3.7v-3.5
		h3.6v-8.9H108.7z"/>
</g>
</svg>
