<svg xmlns="http://www.w3.org/2000/svg" viewBox="0 0 357.28 357.27"><defs><style>.cls-1{fill:#274e5e;}.cls-1,.cls-2{fill-rule:evenodd;}.cls-2{fill:#fc6e62;}</style></defs><g id="Layer_2" data-name="Layer 2"><g id="Layer_1-2" data-name="Layer 1"><path class="cls-1" d="M36.43,245.29c14.4,0,21.66,17.49,11.47,27.68S20.22,275.9,20.22,261.5a16.21,16.21,0,0,1,16.21-16.21Z"/><path class="cls-1" d="M39.41,258.53a4.21,4.21,0,1,1-3-1.23A4.2,4.2,0,0,1,39.41,258.53Z"/><path class="cls-1" d="M357.23,218.3c-1.15-19-24.37-30.59-44-21.68h0l-.41.2c-28.09,15.47-59,48.18-89.21,54.94a26.26,26.26,0,0,0,1.86-25c-3.72-8.36-12.19-16.21-27.24-20.89l-42.35-11.27c-16.34-3.08-30.55-.19-46.16,8.71L57.11,232.55A20.64,20.64,0,0,0,32,226.71l-20.39,9.91A20.61,20.61,0,0,0,2,264.07L41.67,345.7a20.61,20.61,0,0,0,27.44,9.53l20.41-9.9a20.63,20.63,0,0,0,10.31-25.62l11.76-5.46c9.21-4.18,30.89,1.12,50,5.8,9.23,2.25,17.91,4.38,24.83,5.34,29,4,39.36-3.17,63.4-17.65,62-37.32,95-64.41,97.48-66.9C354.85,233.34,357.67,225.47,357.23,218.3ZM84.31,334.53l-20,9.72c-5,2.31-9.55.72-12-4.15L12.83,258.86a8.58,8.58,0,0,1,3.94-11.45l20.41-9.91a8.58,8.58,0,0,1,11.45,3.95l38,78.28,1.63,3.35A8.57,8.57,0,0,1,84.31,334.53ZM338.86,232.34h0c-3.4,2.91-32.74,27.53-95.17,65.11-21.47,12.94-30.85,19.48-55.57,16.05-22.61-3.13-62.91-18.6-81.45-10.2l-12,5.57L62.76,243.11l52.92-29.33a61.59,61.59,0,0,1,20.37-7.71,49.14,49.14,0,0,1,17.44.31l41.23,11c11.3,3.52,17.42,8.85,19.87,14.36a14.27,14.27,0,0,1-1.6,14.47,13.5,13.5,0,0,1-10.18,5.65c-15.08-2.75-26.51-6.17-38.22-9.67-4.27-1.28-8.57-2.56-13.92-4a6,6,0,0,0-3.19,11.54c18.61,5.16,31.2,10,53.5,14h0c30.64,7.14,59.36-14.47,86.42-34.81,10.65-8,21-15.82,30.94-21.32a21.65,21.65,0,0,1,18,0,17.29,17.29,0,0,1,6.41,5C347.49,218.67,345.3,225.84,338.86,232.34Z"/><path class="cls-2" d="M337.93,43.05h0a6,6,0,0,0-5.64-5.53,146.2,146.2,0,0,1-88.15-36h0a6,6,0,0,0-7.93,0,146.1,146.1,0,0,1-41.07,25.41A146.31,146.31,0,0,1,148.29,37.5a6,6,0,0,0-5.93,5.55c-3,39.13,6.13,71.9,21.4,97.85,19,32.22,47.48,53.88,74.2,64.18a6,6,0,0,0,4.32,0c26.74-10.29,55.27-32,74.25-64.2C331.8,115,340.9,82.18,337.93,43.05Zm-41.69,59.7a56.1,56.1,0,1,1-56.09-56.1h0a56.1,56.1,0,0,1,56.09,56.09Z"/><path class="cls-2" d="M209,71.58a44.08,44.08,0,1,0,62.35,0A44.09,44.09,0,0,0,209,71.58Zm62.74,17.2L235.29,125.2a6,6,0,0,1-8.49,0L208.59,107l-.19-.18a6,6,0,0,1,8.68-8.31l14,14,32.17-32.18h0l.13-.12a6,6,0,1,1,8.37,8.61Z"/></g></g></svg>