<?xml version="1.0" encoding="utf-8"?>
<!-- Generator: Adobe Illustrator 22.0.0, SVG Export Plug-In . SVG Version: 6.00 Build 0)  -->
<svg version="1.1" id="Layer_1" xmlns="http://www.w3.org/2000/svg" xmlns:xlink="http://www.w3.org/1999/xlink" x="0px" y="0px"
	 viewBox="0 0 144 145" style="enable-background:new 0 0 144 145;" xml:space="preserve">
<style type="text/css">
	.st0{fill:#F16E64;}
</style>
<g>
	<g>
		<g>
			<polygon class="st0" points="62.7,58.2 62.7,84.7 87.1,71.6 			"/>
		</g>
	</g>
	<g>
		<g>
			<path class="st0" d="M108.1,0.1H35.8C15.9,0.1-0.4,16.4-0.4,36.4v72.3c0,19.9,16.3,36.2,36.2,36.2h72.3c20,0,36.3-16.3,36.3-36.3
				V36.4C144.4,16.4,128.1,0.1,108.1,0.1z M116.8,76.1c0,7.6-0.7,15.3-0.7,15.3s-0.8,6.4-3.4,9.3c-3.5,3.8-7.2,3.8-9,4
				c-12.6,0.9-31.6,1-31.6,1s-23.6-0.3-30.8-1c-2-0.3-6.6-0.2-10-4c-2.8-2.9-3.4-9.3-3.4-9.3s-0.7-7.7-0.7-15.3v-7.1
				c0-7.6,0.7-15.3,0.7-15.3s0.8-6.4,3.4-9.3c3.5-3.8,7.2-3.9,9-4.1c12.8-0.9,31.7-1,31.7-1s19,0.1,31.6,1c1.7,0.2,5.6,0.3,9.1,4
				c2.8,2.9,3.4,9.4,3.4,9.4s0.7,7.7,0.7,15.3V76.1z"/>
		</g>
	</g>
</g>
</svg>
