<?xml version="1.0" encoding="utf-8"?>
<!-- Generator: Adobe Illustrator 25.4.1, SVG Export Plug-In . SVG Version: 6.00 Build 0)  -->
<svg version="1.1" id="Layer_1" xmlns="http://www.w3.org/2000/svg" xmlns:xlink="http://www.w3.org/1999/xlink" x="0px" y="0px"
	 viewBox="0 0 65 56" style="enable-background:new 0 0 65 56;" xml:space="preserve">
<style type="text/css">
	.st0{fill:none;stroke:#284F5E;stroke-width:1.3362;stroke-miterlimit:10;}
	.st1{fill:#284F5E;}
	.st2{fill:none;}
</style>
<g>
	<path class="st0" d="M53.4,28c0,14.3-11.6,25.8-25.8,25.8S1.8,42.3,1.8,28S13.4,2.2,27.6,2.2S53.4,13.7,53.4,28z"/>
	<path class="st1" d="M34.2,16.1l-3.1,0.7c-0.1-0.4-0.5-0.7-1-0.6l0,0l-0.4-1.7c-0.2-1.1-1.4-1.8-2.5-1.5l-6.7,1.5
		c-1.1,0.3-1.8,1.3-1.6,2.4l0.4,1.7l0,0c-0.4,0.1-0.7,0.5-0.6,0.9l-3.1,0.7c-2.3,0.5-3.7,2.8-3.2,5.1l3.4,15c0.4,1.9,2.3,3,4.1,2.6
		l20-4.6c1.9-0.4,3-2.3,2.6-4.1l-3.4-15C38.8,17,36.5,15.6,34.2,16.1z M21.9,40.8l-2.3,0.5c-1,0.2-2-0.4-2.2-1.4l-3.4-15
		c-0.3-1.4,0.6-2.8,2-3.1l1.5-0.3L21.9,40.8z M20.6,16.6c-0.1-0.2,0.1-0.5,0.3-0.5l6.8-1.5c0.2-0.1,0.5,0.1,0.5,0.3l0.4,1.7l0,0
		c-0.4,0.1-0.7,0.5-0.6,0.9l-6,1.4c-0.1-0.4-0.5-0.7-1-0.6l0,0L20.6,16.6z M31.5,18.4l4.4,19.3l-12.4,2.8l-4.4-19.3L31.5,18.4z
		 M41.1,34.6c0.2,1-0.4,2-1.4,2.2l-2.3,0.5L33.1,18l1.5-0.3c1.4-0.3,2.8,0.6,3.1,2L41.1,34.6z"/>
	<circle class="st1" cx="51.4" cy="38.8" r="11.8"/>
	<rect x="45.6" y="34.1" class="st2" width="12.7" height="10.5"/>
</g>
</svg>
